<svg width="490" height="21" viewBox="0 0 490 21" fill="none" xmlns="http://www.w3.org/2000/svg">
<path d="M2 18.1187C12 18.1187 22 2.00003 32.5 2.00326C43 2.0065 52 18.1187 62.5 18.1187C73 18.1187 83 2.00327 93.5 2.00327C104.075 2.00327 114 18.1187 124.5 18.1187C135 18.1187 144 2.00003 154.5 2.00003C165 2.00003 175 18.1187 185.5 18.1187C196 18.1187 205 2.00003 215.5 2.00327C226 2.00651 235 18.1187 245.5 18.1187C256 18.1187 265 2.00003 275.5 2.00329C286 2.00655 295 18.1187 305.5 18.1187C316 18.1187 326 2.00327 336.5 2.00327C347 2.00327 357 18 367.5 18.1187C378 18.1187 387 2.00327 397.5 2.00327C408 2.00327 418 18 428.5 18C439 18 448 2 458.5 2C469 2 478.065 18.1187 488 18.1187" stroke="#43549B" stroke-width="4" stroke-linecap="round"/>
</svg>
