<svg width="208" height="208" viewBox="0 0 208 208" fill="none" xmlns="http://www.w3.org/2000/svg">
<path fill-rule="evenodd" clip-rule="evenodd" d="M72.1993 32.3881C67.1254 37.2945 55.9733 34.1414 48.7096 34.1414C33.9307 34.1414 18.6445 35.1135 7.46513 46.2941C4.6616 49.0976 2.77936 53.9409 1.94115 57.7103C0.832633 62.6962 -0.816488 68.0391 0.468101 73.1762C4.76329 90.3582 28.0372 95.5387 35.4521 110.37C38.4838 116.432 24.0222 121.309 21.091 123.259C2.85129 135.39 0.966563 151.051 2.30943 160.453C4.67154 176.985 17.3488 190.851 33.979 193.227C44.4739 194.726 55.2653 189.815 64.9121 186.598C72.9743 183.911 84.8654 174.295 94.005 178.865C102.21 182.968 110.405 193.056 116.836 199.488C122.686 205.336 136.46 204.344 143.718 203.538C147.422 203.127 152.275 201.648 155.503 199.488C183.386 180.824 155.479 157.686 155.871 153.824C156.513 147.489 169.912 150.371 179.439 147.195C197.711 141.104 211.376 120.511 205.954 101.531C202.34 88.8827 189.216 82.4498 177.966 78.7002C173.346 77.1602 159.045 79.0176 156.976 72.808C155.768 69.1848 158.68 43.5848 157.88 35.4185C154.858 4.57472 122.632 -4.18432 102.114 1.73273C86.3917 6.26599 78.921 25.887 72.1993 32.3881Z" fill="#DCECF9"/>
<path fill-rule="evenodd" clip-rule="evenodd" d="M113.65 65.737C109.256 67.6776 102.874 63.0418 98.2354 61.3341C88.7966 57.8594 78.8053 54.8863 69.0368 59.3986C66.5871 60.5299 64.2463 63.1806 62.8247 65.3909C60.9445 68.3146 58.6351 71.3392 58.2478 74.9221C56.9513 86.9055 70.5975 95.686 71.8461 106.901C72.3571 111.486 61.9745 111.2 59.6438 111.757C45.1428 115.216 40.2568 124.775 38.9041 131.095C36.5258 142.209 41.3622 154.046 51.4247 159.473C57.775 162.898 65.8218 162.298 72.739 162.512C78.5198 162.692 88.375 159.346 93.1379 164.413C97.4133 168.962 100.275 177.332 102.871 182.952C105.232 188.063 114.262 190.668 119.087 191.859C121.549 192.467 124.997 192.664 127.566 192.043C149.761 186.679 137.379 165.34 138.537 162.966C140.437 159.071 148.316 164.062 155.147 164.273C168.249 164.679 181.818 154.74 182.818 141.344C183.483 132.415 176.614 125.221 170.31 120.182C167.722 118.112 158.152 115.936 158.29 111.484C158.371 108.886 166.249 93.2204 167.658 87.8168C172.98 67.4076 154.458 54.2367 139.963 53.1919C128.855 52.3905 119.471 63.1653 113.65 65.737Z" stroke="#43549B" stroke-width="6" stroke-miterlimit="1.5" stroke-linecap="round" stroke-linejoin="round"/>
</svg>
