<svg width="96" height="97" viewBox="0 0 96 97" fill="none" xmlns="http://www.w3.org/2000/svg">
<path fill-rule="evenodd" clip-rule="evenodd" d="M33.4587 15.2622C31.1074 17.5743 25.9393 16.0884 22.5731 16.0884C15.7242 16.0884 8.64029 16.5465 3.45951 21.8152C2.16029 23.1363 1.28802 25.4186 0.899571 27.1948C0.38586 29.5443 -0.378379 32.0621 0.216929 34.4828C2.20742 42.5795 12.993 45.0207 16.4293 52.0096C17.8342 54.8662 11.1324 57.1643 9.77402 58.0834C1.32135 63.7996 0.447927 71.1799 1.07024 75.6101C2.16489 83.4006 8.03981 89.9348 15.7466 91.0544C20.6102 91.7608 25.6112 89.4464 30.0817 87.9307C33.8179 86.6645 39.3285 82.1332 43.564 84.2864C47.3663 86.2199 51.164 90.9737 54.1445 94.0045C56.8556 96.7607 63.2385 96.2932 66.6023 95.9134C68.3187 95.7194 70.5678 95.0224 72.0635 94.0045C84.985 85.2096 72.0526 74.3065 72.2342 72.4864C72.5318 69.5012 78.7412 70.8591 83.156 69.3627C91.6236 66.4927 97.9565 56.7886 95.4437 47.8447C93.7686 41.8842 87.6869 38.8528 82.4733 37.0859C80.3323 36.3602 73.7052 37.2355 72.7461 34.3093C72.1865 32.602 73.5357 20.5385 73.165 16.6903C71.7647 2.15575 56.8303 -1.97178 47.322 0.816512C40.0359 2.95272 36.5738 12.1987 33.4587 15.2622Z" fill="#43549B"/>
<path d="M42.1641 54.8243C41.7848 55.7155 41.2538 56.3508 40.5712 56.73C39.8885 57.0903 39.0921 57.2705 38.1818 57.2705C37.3285 57.2705 36.5226 57.1093 35.7641 56.7869C35.0245 56.4646 34.3703 55.9905 33.8014 55.3647C33.2325 54.7389 32.7774 53.9804 32.4361 53.0892C32.1137 52.1979 31.9525 51.1834 31.9525 50.0456V49.5905C31.9525 48.4717 32.1137 47.4666 32.4361 46.5754C32.7584 45.6841 33.1946 44.9256 33.7445 44.2998C34.2944 43.674 34.9297 43.2 35.6503 42.8776C36.3898 42.5363 37.1768 42.3656 38.0112 42.3656C39.0162 42.3656 39.8221 42.5363 40.429 42.8776C41.0547 43.2189 41.5478 43.7499 41.9081 44.4705H42.4201V42.7638H46.0041V52.6056C46.0041 53.1745 46.2601 53.4589 46.7721 53.4589H47.3125V56.8723H44.8663C44.2216 56.8723 43.6906 56.6826 43.2734 56.3034C42.8752 55.9241 42.6761 55.4311 42.6761 54.8243H42.1641ZM38.9783 53.8572C40.0213 53.8572 40.8556 53.5158 41.4814 52.8332C42.1072 52.1315 42.4201 51.1834 42.4201 49.9887V49.6474C42.4201 48.4527 42.1072 47.514 41.4814 46.8314C40.8556 46.1298 40.0213 45.7789 38.9783 45.7789C37.9353 45.7789 37.101 46.1298 36.4752 46.8314C35.8494 47.514 35.5365 48.4527 35.5365 49.6474V49.9887C35.5365 51.1834 35.8494 52.1315 36.4752 52.8332C37.101 53.5158 37.9353 53.8572 38.9783 53.8572Z" fill="white"/>
<path d="M54.9443 46.746C54.9443 47.2012 55.1813 47.533 55.6554 47.7416C56.1295 47.9312 56.9923 48.0924 58.2439 48.2252C59.685 48.3769 60.8607 48.813 61.771 49.5336C62.6812 50.2352 63.1363 51.2213 63.1363 52.4918V52.6625C63.1363 54.0658 62.6243 55.1846 61.6003 56.0189C60.5763 56.8533 59.1351 57.2705 57.2767 57.2705C56.1769 57.2705 55.2382 57.1283 54.4607 56.8438C53.6833 56.5594 53.0385 56.2086 52.5265 55.7914C52.0145 55.3552 51.6163 54.8812 51.3318 54.3692C51.0664 53.8382 50.8862 53.3262 50.7914 52.8332L54.091 51.7523C54.2427 52.3591 54.5556 52.89 55.0296 53.3452C55.5227 53.8003 56.2717 54.0278 57.2767 54.0278C58.168 54.0278 58.7748 53.8951 59.0972 53.6296C59.4385 53.3452 59.6092 53.0417 59.6092 52.7194C59.6092 52.5297 59.5618 52.3591 59.467 52.2074C59.3911 52.0367 59.2394 51.885 59.0118 51.7523C58.7843 51.6006 58.4714 51.4773 58.0732 51.3825C57.6939 51.2877 57.2104 51.2118 56.6225 51.1549C55.0296 51.0222 53.7591 50.6145 52.811 49.9318C51.8818 49.2302 51.4172 48.2062 51.4172 46.8598V46.6892C51.4172 45.9875 51.5689 45.3712 51.8723 44.8403C52.1757 44.3093 52.5739 43.8637 53.067 43.5034C53.56 43.1241 54.1289 42.8397 54.7736 42.65C55.4184 42.4604 56.0821 42.3656 56.7647 42.3656C57.656 42.3656 58.424 42.4794 59.0687 42.7069C59.7324 42.9155 60.2919 43.2 60.747 43.5603C61.2021 43.9016 61.5719 44.2903 61.8563 44.7265C62.1407 45.1437 62.3588 45.5514 62.5105 45.9496L59.2679 47.258C59.0972 46.746 58.8033 46.3478 58.3861 46.0634C57.9689 45.76 57.4284 45.6083 56.7647 45.6083C56.1579 45.6083 55.7028 45.722 55.3994 45.9496C55.096 46.1582 54.9443 46.4237 54.9443 46.746Z" fill="white"/>
</svg>
