<svg width="64" height="64" viewBox="0 0 64 64" fill="none" xmlns="http://www.w3.org/2000/svg">
<path fill-rule="evenodd" clip-rule="evenodd" d="M22.3058 10.028C20.7383 11.5471 17.2928 10.5708 15.0487 10.5708C10.4828 10.5708 5.76019 10.8718 2.30634 14.3335C1.44019 15.2016 0.858677 16.7011 0.599714 17.8682C0.25724 19.4119 -0.252252 21.0662 0.144619 22.6568C1.47161 27.9766 8.66203 29.5806 10.9529 34.1726C11.8895 36.0495 7.42162 37.5595 6.51602 38.1634C0.880902 41.9192 0.298618 46.7684 0.713494 49.6792C1.44326 54.7979 5.35987 59.0912 10.4977 59.8268C13.7401 60.2909 17.0741 58.7703 20.0545 57.7744C22.5453 56.9424 26.219 53.9652 29.0427 55.3799C31.5775 56.6503 34.1093 59.7738 36.0963 61.7652C37.9037 63.5761 42.159 63.2689 44.4015 63.0194C45.5458 62.8919 47.0452 62.4339 48.0423 61.7652C56.6567 55.9865 48.0351 48.8227 48.1561 47.6268C48.3545 45.6654 52.4941 46.5576 55.4373 45.5744C61.0824 43.6886 65.3043 37.3126 63.6291 31.4361C62.5124 27.5198 58.4579 25.528 54.9822 24.3671C53.5549 23.8903 49.1368 24.4654 48.4974 22.5427C48.1243 21.4209 49.0238 13.4947 48.7767 10.9662C47.8431 1.41642 37.8869 -1.29555 31.548 0.536485C26.6906 1.94007 24.3825 8.01511 22.3058 10.028Z" fill="#DCECF9"/>
<path d="M28.1094 37.0175C27.8566 37.6116 27.5026 38.0351 27.0475 38.288C26.5924 38.5282 26.0614 38.6483 25.4546 38.6483C24.8857 38.6483 24.3484 38.5408 23.8428 38.3259C23.3497 38.111 22.9136 37.7949 22.5343 37.3778C22.1551 36.9606 21.8517 36.4549 21.6241 35.8607C21.4092 35.2666 21.3017 34.5902 21.3017 33.8317V33.5283C21.3017 32.7824 21.4092 32.1124 21.6241 31.5182C21.839 30.924 22.1298 30.4184 22.4964 30.0012C22.863 29.584 23.2865 29.2679 23.7669 29.053C24.26 28.8255 24.7846 28.7117 25.3408 28.7117C26.0109 28.7117 26.5482 28.8255 26.9527 29.053C27.3699 29.2806 27.6986 29.6346 27.9388 30.1149H28.2801V28.9772H30.6694V35.5384C30.6694 35.9176 30.8401 36.1072 31.1814 36.1072H31.5417V38.3828H29.9109C29.4811 38.3828 29.1271 38.2564 28.849 38.0035C28.5835 37.7507 28.4508 37.422 28.4508 37.0175H28.1094ZM25.9856 36.3727C26.6809 36.3727 27.2371 36.1452 27.6543 35.6901C28.0715 35.2223 28.2801 34.5902 28.2801 33.7938V33.5662C28.2801 32.7698 28.0715 32.144 27.6543 31.6889C27.2371 31.2211 26.6809 30.9872 25.9856 30.9872C25.2903 30.9872 24.734 31.2211 24.3168 31.6889C23.8997 32.144 23.6911 32.7698 23.6911 33.5662V33.7938C23.6911 34.5902 23.8997 35.2223 24.3168 35.6901C24.734 36.1452 25.2903 36.3727 25.9856 36.3727ZM36.6296 31.632C36.6296 31.9354 36.7876 32.1566 37.1037 32.2957C37.4197 32.4221 37.9949 32.5296 38.8293 32.6181C39.7901 32.7192 40.5739 33.01 41.1807 33.4904C41.7875 33.9581 42.0909 34.6155 42.0909 35.4625V35.5763C42.0909 36.5118 41.7496 37.2577 41.0669 37.8139C40.3843 38.3702 39.4235 38.6483 38.1845 38.6483C37.4513 38.6483 36.8255 38.5535 36.3072 38.3638C35.7889 38.1742 35.3591 37.9403 35.0177 37.6622C34.6764 37.3714 34.4109 37.0554 34.2213 36.7141C34.0443 36.3601 33.9242 36.0188 33.861 35.6901L36.0607 34.9695C36.1618 35.374 36.3704 35.728 36.6865 36.0314C37.0152 36.3348 37.5145 36.4865 38.1845 36.4865C38.7787 36.4865 39.1833 36.398 39.3982 36.221C39.6257 36.0314 39.7395 35.8291 39.7395 35.6142C39.7395 35.4878 39.7079 35.374 39.6447 35.2729C39.5941 35.1591 39.493 35.058 39.3413 34.9695C39.1896 34.8683 38.981 34.7862 38.7155 34.7229C38.4627 34.6597 38.1403 34.6092 37.7484 34.5712C36.6865 34.4828 35.8395 34.2109 35.2074 33.7558C34.5879 33.2881 34.2782 32.6054 34.2782 31.7078V31.5941C34.2782 31.1263 34.3793 30.7154 34.5816 30.3615C34.7839 30.0075 35.0493 29.7104 35.378 29.4702C35.7067 29.2174 36.086 29.0277 36.5158 28.9013C36.9456 28.7749 37.3881 28.7117 37.8432 28.7117C38.4374 28.7117 38.9494 28.7875 39.3792 28.9392C39.8217 29.0783 40.1946 29.2679 40.498 29.5081C40.8014 29.7357 41.048 29.9949 41.2376 30.2856C41.4272 30.5637 41.5726 30.8355 41.6737 31.101L39.512 31.9733C39.3982 31.632 39.2022 31.3665 38.9241 31.1769C38.646 30.9746 38.2857 30.8735 37.8432 30.8735C37.4387 30.8735 37.1353 30.9493 36.933 31.101C36.7307 31.2401 36.6296 31.4171 36.6296 31.632Z" fill="#43549B"/>
</svg>
